<?xml version="1.0" encoding="UTF-8"?>
<svg version="1.1" xmlns="http://www.w3.org/2000/svg" width="512" height="512">
<path d="M0 0 C1.1439901 -0.00623996 2.28798019 -0.01247993 3.46663666 -0.01890898 C6.64252578 -0.03211727 9.81780499 -0.02734515 12.99367905 -0.0149641 C16.41842676 -0.00592603 19.84309105 -0.01987711 23.26782227 -0.03088379 C29.97703364 -0.048687 36.68606621 -0.04482109 43.39528465 -0.03323323 C48.84711553 -0.02420623 54.29889622 -0.02297171 59.75073242 -0.02732849 C60.91383887 -0.02824789 60.91383887 -0.02824789 62.10044241 -0.02918586 C63.67557336 -0.03046474 65.2507043 -0.03176159 66.82583523 -0.03307623 C81.60206543 -0.0444873 96.37819643 -0.03136008 111.15441036 -0.00987476 C123.83801597 0.00799672 136.52147516 0.00489276 149.20507812 -0.0135498 C163.9277818 -0.03494724 178.65039849 -0.04338861 193.37311554 -0.03110075 C194.94250996 -0.02982653 196.51190439 -0.02856905 198.08129883 -0.02732849 C198.8535069 -0.02671139 199.62571498 -0.02609429 200.4213233 -0.02545848 C205.86773609 -0.02200219 211.31409379 -0.02783992 216.76049805 -0.0372467 C223.39627053 -0.04845558 230.0318537 -0.04545024 236.66760445 -0.02412373 C240.05447943 -0.01359812 243.4410386 -0.00951672 246.82791138 -0.02272034 C250.49626987 -0.03359472 254.16373051 -0.02000897 257.83203125 0 C258.90711693 -0.00892289 259.98220261 -0.01784577 261.08986664 -0.02703905 C268.12490285 0.04777619 268.12490285 0.04777619 271.57701874 2.05573273 C273.4256529 5.44127017 273.46975625 8.4898404 273.4239502 12.25109863 C273.43331014 13.42805487 273.43331014 13.42805487 273.44285917 14.62878799 C273.45882718 17.26068327 273.44617043 19.89165726 273.43359375 22.52355957 C273.43901319 24.40926657 273.44613484 26.29496934 273.45483398 28.18066406 C273.47309145 33.30460461 273.46598977 38.42822352 273.45331764 43.5521698 C273.44320255 48.91015501 273.45257917 54.26811236 273.4588623 59.62609863 C273.46614305 68.62452142 273.45653977 77.62281295 273.4375 86.62121582 C273.41573048 97.03004092 273.42278155 107.43855264 273.44480562 117.84737015 C273.46294742 126.77825227 273.46552391 135.70903995 273.45505095 144.63993454 C273.44880931 149.97656136 273.44799881 155.3130408 273.4611969 160.6496582 C273.472737 165.66645504 273.4647633 170.68284718 273.44161987 175.69960022 C273.43632294 177.54268216 273.43786333 179.38579807 273.44667053 181.22886658 C273.45757098 183.74129704 273.44393006 186.25242357 273.4239502 188.76477051 C273.43733453 189.86379385 273.43733453 189.86379385 273.45098925 190.98501968 C273.39795286 194.41354674 273.1481743 196.20607065 271.03059769 198.95944595 C268.47660711 200.82970931 267.10799738 201.02141929 263.96386719 201.05383301 C262.98315247 201.07355164 262.00243774 201.09327026 260.99200439 201.11358643 C259.94083435 201.11481506 258.88966431 201.1160437 257.80664062 201.11730957 C256.72469421 201.13384583 255.6427478 201.15038208 254.52801514 201.16741943 C251.07395805 201.21598558 247.62034152 201.23729023 244.16601562 201.25793457 C241.82354544 201.28608693 239.48109586 201.31601331 237.13867188 201.34777832 C231.39786667 201.42174681 225.6571858 201.47333884 219.91601562 201.50793457 C220.64481934 202.09671387 221.37362305 202.68549316 222.12451172 203.29211426 C240.92276658 218.55925697 255.1519898 236.22019837 261.85351562 259.75793457 C262.05299805 260.45362549 262.25248047 261.14931641 262.45800781 261.86608887 C264.11543058 268.20403215 264.3517061 273.73622029 264.91601562 280.50793457 C286.03601563 280.50793457 307.15601563 280.50793457 328.91601562 280.50793457 C328.91601562 225.06793457 328.91601562 169.62793457 328.91601562 112.50793457 C317.03601563 112.50793457 305.15601563 112.50793457 292.91601562 112.50793457 C288.41487133 108.00679027 288.41487133 108.00679027 288.3984375 104.44543457 C288.38582886 103.65781738 288.37322021 102.8702002 288.36022949 102.05871582 C288.37237488 100.7960791 288.37237488 100.7960791 288.38476562 99.50793457 C288.38093872 98.63523926 288.37711182 97.76254395 288.37316895 96.86340332 C288.37045072 95.02094365 288.37780568 93.17844533 288.39453125 91.33605957 C288.41594315 88.51747523 288.39472761 85.70143972 288.36914062 82.88293457 C288.37178392 81.09126228 288.37690893 79.29959158 288.38476562 77.50793457 C288.3766687 76.66617676 288.36857178 75.82441895 288.36022949 74.95715332 C288.37914246 73.77572754 288.37914246 73.77572754 288.3984375 72.57043457 C288.40161987 71.88078613 288.40480225 71.1911377 288.40808105 70.48059082 C289.17962987 67.48414074 290.44230991 66.33428363 292.91601562 64.50793457 C296.04536438 64.06297302 296.04536438 64.06297302 299.77661133 64.13659668 C300.79937668 64.14759399 300.79937668 64.14759399 301.84280396 64.15881348 C303.31995401 64.17623762 304.79702195 64.20230203 306.27388954 64.2360363 C308.61626437 64.28579811 310.95698597 64.30468585 313.29985046 64.31422424 C319.95853771 64.34424112 326.61578834 64.40874414 333.27319336 64.54528809 C337.35029137 64.6267103 341.42484294 64.65421117 345.50270653 64.64801216 C347.05179954 64.65613558 348.60092933 64.68449919 350.14925575 64.73390007 C354.90014847 64.8819676 359.31081486 64.86215697 363.91601562 63.50793457 C367.24779546 60.22358522 368.98857462 56.72126313 370.91601562 52.50793457 C380.4834961 41.60160856 395.73378155 33.28928197 410.32617188 32.26965332 C411.53144531 32.24516113 412.73671875 32.22066895 413.97851562 32.19543457 C415.79029297 32.13936035 415.79029297 32.13936035 417.63867188 32.08215332 C420.91601562 32.50793457 420.91601562 32.50793457 423.08850098 34.00524902 C425.6620199 37.52954833 425.47598686 40.77660279 425.43359375 44.97668457 C425.44410767 46.25539429 425.44410767 46.25539429 425.45483398 47.55993652 C425.47243131 50.37626777 425.46078522 53.19159321 425.44726562 56.00793457 C425.44996004 57.96561882 425.45384204 59.92330177 425.4588623 61.88098145 C425.4647597 65.98332464 425.45618656 70.08531939 425.4375 74.18762207 C425.41471038 79.44714085 425.42783216 84.70584321 425.45178986 89.96533203 C425.46624126 94.00767167 425.46164485 98.04981762 425.45127869 102.09216309 C425.44860958 104.03145443 425.4518876 105.97076334 425.4611969 107.91003418 C425.47135164 110.62022507 425.4558769 113.32909232 425.43359375 116.03918457 C425.44169067 116.84138428 425.4497876 117.64358398 425.45812988 118.47009277 C425.40391265 122.02790496 425.21460119 124.10399956 423.07092285 127.00402832 C418.4166392 130.25224532 412.31223509 129.04755652 406.91601562 128.50793457 C397.55798211 126.66468554 385.81360057 122.40551952 378.91601562 115.50793457 C379.76703459 133.97504603 387.42770898 151.92864203 399.91601562 165.50793457 C400.63015625 166.31359863 401.34429687 167.1192627 402.08007812 167.94934082 C407.47164736 173.71056614 413.35179667 177.99236857 419.87524414 182.33190918 C442.78160955 197.7371227 458.67258718 221.40982336 464.08691406 248.52575684 C466.06618436 260.67341542 465.50803729 273.28004628 465.4375 285.55334473 C465.41443809 289.61306527 465.4280504 293.67174349 465.45178986 297.73142815 C465.46622597 300.87989215 465.46165678 304.02810714 465.45127869 307.17657852 C465.4486194 308.67487845 465.45185302 310.1732013 465.4611969 311.67147446 C465.47135747 313.75283129 465.45588508 315.83246788 465.43359375 317.91369629 C465.43041138 319.09406464 465.427229 320.27443298 465.4239502 321.49057007 C464.80889344 325.14428949 463.9072299 326.36619584 460.91601562 328.50793457 C459.59601563 328.50793457 458.27601563 328.50793457 456.91601562 328.50793457 C456.86445313 329.18855957 456.81289063 329.86918457 456.75976562 330.57043457 C454.88175492 346.6188897 445.81201035 360.65214632 433.85351562 371.19543457 C417.52950455 384.0003612 398.79113077 386.51782446 378.60351562 384.11340332 C375.87905012 383.46966528 373.48877469 382.61533956 370.91601562 381.50793457 C370.01641113 381.1287085 370.01641113 381.1287085 369.09863281 380.74182129 C351.35337428 373.09777648 340.56128441 361.58221879 332.17773438 344.17199707 C330.44126576 339.12924921 329.79281307 333.76871925 328.91601562 328.50793457 C289.31601562 328.50793457 249.71601563 328.50793457 208.91601562 328.50793457 C207.92601562 334.44793457 207.92601562 334.44793457 206.91601562 340.50793457 C205.79701346 343.41313737 204.74037392 345.92888704 203.29101562 348.63293457 C202.93692627 349.31106201 202.58283691 349.98918945 202.21801758 350.68786621 C193.97191972 366.02082523 181.34747367 376.75837984 164.91601562 382.50793457 C152.25081595 386.29442225 135.14700545 386.77257802 122.91601562 381.50793457 C122.01641113 381.1287085 122.01641113 381.1287085 121.09863281 380.74182129 C103.35337428 373.09777648 92.56128441 361.58221879 84.17773438 344.17199707 C83.02054988 340.81150462 82.39541238 337.77641603 81.8371582 334.27893066 C81.57579826 332.65789932 81.57579826 332.65789932 81.30915833 331.00411987 C81.17942123 330.18037872 81.04968414 329.35663757 80.91601562 328.50793457 C80.27343811 328.51681702 79.6308606 328.52569946 78.96881104 328.53485107 C72.28561288 328.62329105 65.60258072 328.68365511 58.91894531 328.72766113 C56.42408497 328.74778621 53.92927185 328.77508909 51.43457031 328.80969238 C47.85014194 328.85816914 44.26633678 328.88089478 40.68164062 328.89855957 C39.56484924 328.91920471 38.44805786 328.93984985 37.29742432 328.96112061 C35.73625885 328.96157379 35.73625885 328.96157379 34.14355469 328.96203613 C33.22866272 328.97091858 32.31377075 328.97980103 31.37115479 328.98895264 C28.07866795 328.34387896 26.91450813 327.16654821 24.91601562 324.50793457 C24.40808105 322.24984741 24.40808105 322.24984741 24.3984375 319.74963379 C24.38582886 318.80699677 24.37322021 317.86435974 24.36022949 316.89315796 C24.36832642 315.87658112 24.37642334 314.86000427 24.38476562 313.81262207 C24.38093872 312.75116974 24.37711182 311.68971741 24.37316895 310.59609985 C24.37044515 308.34160417 24.37783886 306.08707713 24.39453125 303.8326416 C24.41563717 300.44370273 24.39490017 297.05695704 24.36914062 293.66809082 C24.34713552 277.50615997 25.7131174 262.24126967 32.41601562 247.32043457 C32.83947266 246.31399902 32.83947266 246.31399902 33.27148438 245.28723145 C35.18653477 240.82889014 37.48670776 236.70678093 39.91601562 232.50793457 C39.28596619 232.51681702 38.65591675 232.52569946 38.0067749 232.53485107 C31.45333929 232.62329728 24.90007302 232.68365763 18.34619141 232.72766113 C15.8998323 232.74778509 13.45352134 232.77508717 11.00732422 232.80969238 C7.49239222 232.8581742 3.97809579 232.88089585 0.46289062 232.89855957 C-0.63202698 232.91920471 -1.72694458 232.93984985 -2.8550415 232.96112061 C-3.87579773 232.96142273 -4.89655396 232.96172485 -5.94824219 232.96203613 C-6.84536926 232.97091858 -7.74249634 232.97980103 -8.66680908 232.98895264 C-12.05685804 232.31433264 -13.0173273 231.28792614 -15.08398438 228.50793457 C-15.68302727 225.52586278 -15.62349253 222.58309771 -15.59191895 219.54992676 C-15.59815891 218.63461559 -15.60439887 217.71930443 -15.61082792 216.77625656 C-15.62681189 213.70218064 -15.6141324 210.6288917 -15.6015625 207.55480957 C-15.60698121 205.35383643 -15.61410244 203.15286691 -15.62280273 200.9519043 C-15.64106879 194.96850221 -15.63395489 188.9853754 -15.62128639 183.00196838 C-15.61117578 176.7471135 -15.62054667 170.49228255 -15.62683105 164.23742676 C-15.63457985 153.05918245 -15.62213097 141.88103941 -15.60179371 130.70281935 C-15.58392246 120.566181 -15.58702651 110.42972587 -15.60546875 100.29309082 C-15.62687152 88.52370052 -15.63484466 76.75439949 -15.6230197 64.98498917 C-15.61677602 58.75410817 -15.6159732 52.52335341 -15.62916565 46.29248047 C-15.64070026 40.43523056 -15.63274188 34.57832746 -15.60958862 28.72111511 C-15.60428878 26.56842119 -15.60583698 24.4156982 -15.61463928 22.26301575 C-15.62552781 19.33026074 -15.61191196 16.39862552 -15.59191895 13.46594238 C-15.60530328 12.18015352 -15.60530328 12.18015352 -15.618958 10.86838913 C-15.57277423 7.38931508 -15.38809497 5.08211887 -13.74498749 1.97980499 C-9.35898204 -0.44620934 -4.92737196 -0.0408957 0 0 Z " fill="#000000" transform="translate(31.083984375,111.4920654296875)"/>
<path d="M0 0 C84.48 0 168.96 0 256 0 C256 55.44 256 110.88 256 168 C171.52 168 87.04 168 0 168 C0 112.56 0 57.12 0 0 Z " fill="#8F6129" transform="translate(32,128)"/>
<path d="M0 0 C5.28 0 10.56 0 16 0 C16.03738281 2.47371094 16.07476562 4.94742188 16.11328125 7.49609375 C16.15980573 9.95556311 16.21092512 12.41489847 16.26245117 14.87426758 C16.29522108 16.55256655 16.32339298 18.23096312 16.34643555 19.90942383 C16.55114193 34.4435772 17.54223572 49.02076513 22.75 62.75 C23.00821533 63.44843018 23.26643066 64.14686035 23.5324707 64.86645508 C31.49980323 85.75713979 45.13417213 101.06267637 63 114 C60.65052151 115.19209992 58.2869385 116.33228307 55.8984375 117.4453125 C37.65639416 126.14163028 25.79650593 138.75704382 18.93359375 157.98828125 C17.18758694 163.95169582 16.44843389 169.81161235 16 176 C21.28 176 26.56 176 32 176 C32 173.69 32 171.38 32 169 C34.15002548 155.94896812 40.76291309 145.26841635 51 137 C57.87971444 132.49144927 64.7802639 128.97274983 73 128 C74.175625 127.773125 75.35125 127.54625 76.5625 127.3125 C82.26279488 128.45255898 84.74149285 132.40450995 88 137 C107.87844743 168.03246515 104 192.34964879 104 232 C69.68 232 35.36 232 0 232 C0 155.44 0 78.88 0 0 Z " fill="#F25041" transform="translate(376,192)"/>
<path d="M0 0 C1.45642779 1.20667934 2.89390755 2.43655939 4.3125 3.6875 C5.06273437 4.34363281 5.81296875 4.99976563 6.5859375 5.67578125 C18.56357074 16.85626825 24.40806069 31.06974277 28.3125 46.6875 C28.3125 52.9575 28.3125 59.2275 28.3125 65.6875 C-19.2075 65.6875 -66.7275 65.6875 -115.6875 65.6875 C-115.6875 43.66204695 -112.35088293 24.69099686 -96.74462891 8.64111328 C-95.40479587 7.31049188 -94.0466797 5.99835331 -92.6875 4.6875 C-92.05457031 4.02363281 -91.42164062 3.35976562 -90.76953125 2.67578125 C-66.53550666 -21.13026939 -25.9789598 -19.39463723 0 0 Z " fill="#46638E" transform="translate(203.6875,198.3125)"/>
<path d="M0 0 C16.50584924 12.8217243 25.21672149 28.11688597 30.25 48.25 C30.25 54.52 30.25 60.79 30.25 67.25 C-17.27 67.25 -64.79 67.25 -113.75 67.25 C-113.75 45.22454695 -110.41338293 26.25349686 -94.80712891 10.20361328 C-93.46729587 8.87299188 -92.1091797 7.56085331 -90.75 6.25 C-90.11707031 5.58613281 -89.48414063 4.92226563 -88.83203125 4.23828125 C-65.53826923 -18.6441119 -25.65960534 -17.8642822 0 0 Z " fill="#F25041" transform="translate(217.75,356.75)"/>
<path d="M0 0 C5.28 0 10.56 0 16 0 C16 5.61 16 11.22 16 17 C18.64 17 21.28 17 24 17 C26.24658203 17.34790039 26.24658203 17.34790039 28.0078125 17.84765625 C28.6771582 18.03674561 29.34650391 18.22583496 30.03613281 18.4206543 C30.72545898 18.63246338 31.41478516 18.84427246 32.125 19.0625 C32.86073242 19.28655518 33.59646484 19.51061035 34.35449219 19.74145508 C58.47652867 27.41167967 75.88365475 43.56907568 87.75 65.625 C94.94373051 80.78381674 96.7892113 95.35641065 96 112 C101.28 112 106.56 112 112 112 C112 117.28 112 122.56 112 128 C43.36 128 -25.28 128 -96 128 C-96 122.72 -96 117.44 -96 112 C-90.72 112 -85.44 112 -80 112 C-80.05800781 110.77667969 -80.11601563 109.55335938 -80.17578125 108.29296875 C-80.99006349 83.49708139 -73.03644029 62.77113126 -57 44 C-56.14148438 42.98873047 -56.14148438 42.98873047 -55.265625 41.95703125 C-43.38742831 29.10858582 -23.54099914 18.2035291 -6.12109375 16.76171875 C-4.07920629 16.75213242 -2.03707131 16.85951232 0 17 C0 11.39 0 5.78 0 0 Z M-17 36 C-17.64130859 36.26312988 -18.28261719 36.52625977 -18.94335938 36.79736328 C-29.35692518 41.19946155 -37.18258225 46.89438252 -45 55 C-45.66386719 55.63292969 -46.32773438 56.26585937 -47.01171875 56.91796875 C-61.47251088 71.63873017 -64 92.50400948 -64 112 C-16.48 112 31.04 112 80 112 C80 90.07968609 76.75996073 72.4964267 62 56 C61.01773438 54.87851563 61.01773438 54.87851563 60.015625 53.734375 C50.54374236 43.57111406 39.0959407 38.01277043 26 34 C24.38931641 33.45085937 24.38931641 33.45085937 22.74609375 32.890625 C9.92131388 29.84156367 -4.86015388 31.01701665 -17 36 Z " fill="#000000" transform="translate(152,152)"/>
<path d="M0 0 C3.55662919 0.03444736 7.11077954 0.02055326 10.66748047 0.0012207 C38.74367036 0.01857288 62.99179141 6.70257857 83.61279297 26.69458008 C92.4494016 35.60904429 98.6591281 46.07279322 103.42919922 57.59692383 C103.703125 58.25354004 103.97705078 58.91015625 104.25927734 59.58666992 C110.78894749 76.26678596 108.85751858 95.03583004 108.42919922 112.59692383 C103.14919922 112.59692383 97.86919922 112.59692383 92.42919922 112.59692383 C92.41501953 111.37360352 92.40083984 110.1502832 92.38623047 108.88989258 C91.75420096 81.79671332 82.9329551 58.33700739 63.24169922 39.34692383 C44.06677955 22.80385588 20.29592287 16.1858607 -4.74316406 17.36303711 C-27.37581143 19.23508651 -48.5218187 31.60559733 -63.22314453 48.55395508 C-78.0874605 67.82068077 -82.87886351 88.66543834 -83.57080078 112.59692383 C-88.85080078 112.59692383 -94.13080078 112.59692383 -99.57080078 112.59692383 C-100.56096387 72.00023732 -100.56096387 72.00023732 -94.57080078 57.59692383 C-94.28672363 56.90308594 -94.00264648 56.20924805 -93.70996094 55.49438477 C-89.44485472 45.43844327 -83.64431345 36.87668121 -76.57080078 28.59692383 C-75.99845703 27.92274414 -75.42611328 27.24856445 -74.83642578 26.55395508 C-55.18060487 5.29258444 -27.58838358 -0.29527686 0 0 Z " fill="#EF4F40" transform="translate(171.57080078125,311.403076171875)"/>
<path d="M0 0 C19.16808844 -0.09286676 38.33611267 -0.16411649 57.50438023 -0.20724869 C66.40591181 -0.22781412 75.30730044 -0.25581859 84.20874023 -0.30175781 C91.97341529 -0.341811 99.73798675 -0.36747648 107.50276226 -0.37635398 C111.60859098 -0.38153768 115.7141235 -0.39359325 119.81985664 -0.42292023 C123.69653626 -0.4503827 127.57280204 -0.45838394 131.4495697 -0.45243073 C132.86072997 -0.45351737 134.27190633 -0.46128587 135.68298149 -0.4768219 C148.64043377 -0.61230005 160.8430721 1.66162421 172.375 7.8125 C173.04362061 8.16014404 173.71224121 8.50778809 174.40112305 8.8659668 C179.74996286 11.71881136 184.51942613 14.89484762 189 19 C189.90363281 19.82371094 190.80726563 20.64742187 191.73828125 21.49609375 C205.2352312 34.37207442 215.03508754 51.91367022 216.24609375 70.84765625 C216.24941462 73.89953835 216.137025 76.95119376 216 80 C210.39 80 204.78 80 199 80 C198.79375 77.669375 198.5875 75.33875 198.375 72.9375 C196.43480868 55.99874076 188.47748336 41.74288904 175.30859375 30.7421875 C159.38109316 18.72244933 142.13128506 16.71532169 122.72094727 16.68115234 C121.36899234 16.67181932 120.01704301 16.66164587 118.6651001 16.65071106 C115.04834681 16.62377626 111.43163159 16.60837227 107.81480527 16.59528303 C104.01515995 16.5794897 100.2155907 16.55275262 96.41600037 16.5272522 C89.24479553 16.48074772 82.07357591 16.44386798 74.90229887 16.41057932 C66.72793578 16.37215579 58.55364963 16.32279974 50.37935174 16.27259517 C33.58628909 16.1696975 16.79318422 16.08068984 0 16 C0 10.72 0 5.44 0 0 Z " fill="#000000" transform="translate(48,16)"/>
<path d="M0 0 C14.8283354 12.86214728 24.77658537 31.3103139 30 50 C30.23332031 50.78375 30.46664062 51.5675 30.70703125 52.375 C32.63822065 59.71074102 32.62037011 67.47067392 33 75 C27.72 75 22.44 75 17 75 C16.98582031 73.77667969 16.97164062 72.55335938 16.95703125 71.29296875 C16.32500174 44.19978949 7.50375588 20.74008356 -12.1875 1.75 C-31.36241967 -14.79306795 -55.13327635 -21.41106313 -80.17236328 -20.23388672 C-102.80501065 -18.36183732 -123.95101792 -5.99132649 -138.65234375 10.95703125 C-153.51665972 30.22375694 -158.30806273 51.06851451 -159 75 C-164.28 75 -169.56 75 -175 75 C-173.84320255 45.2124657 -162.85048618 19.59699434 -141 -1 C-127.87304418 -12.92176186 -112.10354403 -20.66491642 -95 -25 C-93.60201172 -25.36738281 -93.60201172 -25.36738281 -92.17578125 -25.7421875 C-58.67363463 -32.88279101 -25.44013966 -21.75588209 0 0 Z " fill="#E14535" transform="translate(247,349)"/>
<path d="M0 0 C7.35496857 -0.09094026 14.7096218 -0.16408014 22.06503677 -0.20724869 C25.48172407 -0.22798401 28.89800158 -0.25603762 32.31445312 -0.30175781 C36.25645777 -0.35417147 40.19830569 -0.37306136 44.140625 -0.390625 C45.95074066 -0.42159271 45.95074066 -0.42159271 47.79742432 -0.45318604 C62.34178036 -0.45697317 73.16923358 4.49577141 83.75 14.3125 C91.42654251 22.42356379 96.14011463 32.41046128 96.1875 43.625 C96.0946875 45.790625 96.0946875 45.790625 96 48 C90.39 48 84.78 48 79 48 C78.690625 45.586875 78.690625 45.586875 78.375 43.125 C76.89631021 35.14623633 73.52160293 28.67474565 67.125 23.5625 C57.72361055 17.2232774 47.82925042 16.86513827 36.81640625 16.68359375 C35.76090073 16.66281265 34.7053952 16.64203156 33.61790466 16.62062073 C30.2661655 16.55555152 26.914352 16.49643948 23.5625 16.4375 C21.28189354 16.39427419 19.00129443 16.35065864 16.72070312 16.30664062 C11.14721043 16.19991411 5.57364341 16.098528 0 16 C0 10.72 0 5.44 0 0 Z " fill="#000000" transform="translate(128,48)"/>
<path d="M0 0 C5.28 0 10.56 0 16 0 C17.3303125 2.5678125 17.3303125 2.5678125 18.6875 5.1875 C23.5383392 14.01851495 30.41680684 19.76243474 40 23 C50.15611497 24.25132649 60.25785318 21.93279238 68.4375 15.62109375 C72.69258002 11.20644823 75.28529343 5.42941315 78 0 C83.28 0 88.56 0 94 0 C93.55209139 11.86957806 86.37484408 21.07107108 78 29 C71.96709216 34.00053858 65.40876192 36.63162529 58 39 C57.01 39.33 56.02 39.66 55 40 C40.07956369 40.95081212 27.19750368 38.43341439 15.33203125 28.84375 C8.05858336 22.06546875 1.38908927 13.31618835 0.0625 3.1875 C0.041875 2.135625 0.02125 1.08375 0 0 Z " fill="#2D2D2D" transform="translate(377,440)"/>
<path d="M0 0 C5.28 0 10.56 0 16 0 C17.3303125 2.5678125 17.3303125 2.5678125 18.6875 5.1875 C23.5383392 14.01851495 30.41680684 19.76243474 40 23 C50.15611497 24.25132649 60.25785318 21.93279238 68.4375 15.62109375 C72.69258002 11.20644823 75.28529343 5.42941315 78 0 C83.28 0 88.56 0 94 0 C93.55209139 11.86957806 86.37484408 21.07107108 78 29 C71.96709216 34.00053858 65.40876192 36.63162529 58 39 C57.01 39.33 56.02 39.66 55 40 C40.07956369 40.95081212 27.19750368 38.43341439 15.33203125 28.84375 C8.05858336 22.06546875 1.38908927 13.31618835 0.0625 3.1875 C0.041875 2.135625 0.02125 1.08375 0 0 Z " fill="#2D2D2D" transform="translate(129,440)"/>
<path d="M0 0 C5.28 0 10.56 0 16 0 C16.03738281 2.47371094 16.07476562 4.94742188 16.11328125 7.49609375 C16.15980573 9.95556311 16.21092512 12.41489847 16.26245117 14.87426758 C16.29522108 16.55256655 16.32339298 18.23096312 16.34643555 19.90942383 C16.55114193 34.4435772 17.54223572 49.02076513 22.75 62.75 C23.00821533 63.44843018 23.26643066 64.14686035 23.5324707 64.86645508 C31.49980323 85.75713979 45.13417213 101.06267637 63 114 C60.38273202 115.40210785 57.97035388 116.65195853 55 117 C53.37765925 115.68832025 51.77052012 114.35369681 50.2421875 112.93359375 C47.53596545 110.59983083 44.6567795 108.67517063 41.6875 106.6875 C19.23825407 91.37303726 6.65681191 70.30832494 1 44 C-0.67299334 35.13475956 -0.11034193 25.92185284 -0.0625 16.9375 C-0.0574758 15.29231907 -0.05291452 13.64713665 -0.04882812 12.00195312 C-0.03875075 8.00123503 -0.0191626 4.00072575 0 0 Z " fill="#E14535" transform="translate(376,192)"/>
<path d="M0 0 C12.23926066 9.51669967 21.03102539 29.96536933 23.28855896 44.91026306 C24.07829214 51.3673077 24.12840179 57.75495864 24.09765625 64.25390625 C24.0962413 65.39536606 24.09482635 66.53682587 24.09336853 67.71287537 C24.08780751 71.32944449 24.07526231 74.94594984 24.0625 78.5625 C24.05747996 81.02669181 24.05291794 83.4908846 24.04882812 85.95507812 C24.03785086 91.97007635 24.02061334 97.98502739 24 104 C18.72 104 13.44 104 8 104 C7.98541748 102.44796875 7.97083496 100.8959375 7.95581055 99.296875 C7.89726787 93.46690313 7.82004427 87.6372952 7.73754883 81.80761719 C7.70456027 79.29791223 7.67644983 76.78813773 7.65356445 74.27832031 C7.42703463 50.0830069 5.93851965 25.78911527 -9.7109375 5.81640625 C-11 4 -11 4 -11 1 C-7.15954411 -0.22894589 -4.00024459 -0.66670743 0 0 Z " fill="#E14535" transform="translate(456,320)"/>
<path d="M0 0 C0 20.46 0 40.92 0 62 C-10.69782841 60.2170286 -20.32119876 54.65283117 -27 46 C-30.74071796 39.89672333 -32.66536496 34.24073636 -32 27 C-29.71321065 17.54793735 -23.04967683 10.59211033 -14.875 5.5625 C-4.74274079 0 -4.74274079 0 0 0 Z " fill="#F15041" transform="translate(440,161)"/>
<path d="M0 0 C11.35740023 1.12707025 21.60714062 7.4905995 30 15 C30.74765625 15.65484375 31.4953125 16.3096875 32.265625 16.984375 C43.77451347 27.71034588 53.12087088 44.44196666 54.15673828 60.41723633 C54.19547299 62.94798555 54.17553194 65.46951572 54.125 68 C54.11597656 68.87011719 54.10695312 69.74023438 54.09765625 70.63671875 C54.07434619 72.7579342 54.03848579 74.87900562 54 77 C48.72 77 43.44 77 38 77 C37.91363281 75.53691406 37.82726562 74.07382812 37.73828125 72.56640625 C35.90136179 45.26478593 28.42881659 25.30174136 7.5625 7 C6.93472656 6.47277344 6.30695313 5.94554687 5.66015625 5.40234375 C3.65754519 3.71072641 1.8147732 1.89038875 0 0 Z " fill="#4E6E9E" transform="translate(178,187)"/>
<path d="M0 0 C-0.71285156 0.50789063 -1.42570312 1.01578125 -2.16015625 1.5390625 C-5.12447757 3.66954377 -8.06676785 5.82694064 -11 8 C-11.65097656 8.47695313 -12.30195313 8.95390625 -12.97265625 9.4453125 C-28.16284941 21.43946029 -36.48545431 41.29288539 -39 60 C-39.58415508 65.67093684 -39.80667781 71.2969954 -40 77 C-45.28 77 -50.56 77 -56 77 C-56.75733712 57.26716066 -53.31939274 38.29788993 -39.91943359 22.96826172 C-37.68779631 20.56159406 -35.36274941 18.27874054 -33 16 C-32.36707031 15.33613281 -31.73414063 14.67226563 -31.08203125 13.98828125 C-25.71767198 8.7186568 -7.72231482 -3.86115741 0 0 Z " fill="#DF4535" transform="translate(160,347)"/>
<path d="M0 0 C21.12 0 42.24 0 64 0 C64 5.28 64 10.56 64 16 C42.88 16 21.76 16 0 16 C0 10.72 0 5.44 0 0 Z " fill="#F35142" transform="translate(296,408)"/>
<path d="M0 0 C23.76 0 47.52 0 72 0 C68.56634016 3.43365984 65.17548789 6.22846038 61.31640625 9.12109375 C58.87820441 10.93307894 58.87820441 10.93307894 57.12402344 13.58691406 C52.2912106 17.31991829 47.63569979 16.62087804 41.69921875 16.48828125 C40.50770706 16.48120651 39.31619537 16.47413177 38.08857727 16.46684265 C34.28757628 16.43888186 30.48805486 16.37613474 26.6875 16.3125 C24.10874525 16.28741956 21.52996738 16.26460596 18.95117188 16.24414062 C12.63354557 16.18904874 6.31702353 16.10275953 0 16 C0 10.72 0 5.44 0 0 Z " fill="#2D2D2D" transform="translate(32,312)"/>
<path d="M0 0 C0 5.28 0 10.56 0 16 C-1.52625 16.185625 -3.0525 16.37125 -4.625 16.5625 C-16.35623045 18.7422383 -26.08192417 24.21102238 -33 34 C-33.33 34.66 -33.66 35.32 -34 36 C-37.62276315 34.6744419 -40.63505348 33.05653045 -43.8125 30.875 C-44.60269531 30.33617187 -45.39289063 29.79734375 -46.20703125 29.2421875 C-46.79871094 28.83226562 -47.39039062 28.42234375 -48 28 C-43.90098835 16.50669283 -32.79522176 9.17657307 -22.14453125 4.11889648 C-14.56974132 0.80794775 -8.24406565 -0.25762705 0 0 Z " fill="#010102" transform="translate(160,200)"/>
<path d="M0 0 C13.65239387 4.26637309 23.68671056 17.96615353 30 30 C34.61899102 40.32825148 37.35045328 49.70999347 37.125 61 C37.11597656 61.87011719 37.10695312 62.74023438 37.09765625 63.63671875 C37.07434619 65.7579342 37.03848579 67.87900562 37 70 C34.36 70 31.72 70 29 70 C28.96036133 69.34104736 28.92072266 68.68209473 28.87988281 68.00317383 C27.48612468 45.95522926 23.85086206 27.27258537 9 10 C8.53464844 9.42636719 8.06929687 8.85273438 7.58984375 8.26171875 C5.21550953 5.3355515 2.71379185 2.61328104 0 0 Z " fill="#F87A6F" transform="translate(211,354)"/>
<path d="M0 0 C7.92 0 15.84 0 24 0 C24 5.28 24 10.56 24 16 C16.08 16 8.16 16 0 16 C0 10.72 0 5.44 0 0 Z " fill="#2E2E2E" transform="translate(336,192)"/>
<path d="M0 0 C5.28 0 10.56 0 16 0 C16 5.28 16 10.56 16 16 C10.72 16 5.44 16 0 16 C0 10.72 0 5.44 0 0 Z " fill="#000000" transform="translate(392,384)"/>
<path d="M0 0 C5.28 0 10.56 0 16 0 C16 5.28 16 10.56 16 16 C10.72 16 5.44 16 0 16 C0 10.72 0 5.44 0 0 Z " fill="#000000" transform="translate(96,48)"/>
<path d="M0 0 C5.28 0 10.56 0 16 0 C16 5.28 16 10.56 16 16 C10.72 16 5.44 16 0 16 C0 10.72 0 5.44 0 0 Z " fill="#000000" transform="translate(64,48)"/>
<path d="M0 0 C5.28 0 10.56 0 16 0 C16 5.28 16 10.56 16 16 C10.72 16 5.44 16 0 16 C0 10.72 0 5.44 0 0 Z " fill="#000000" transform="translate(16,16)"/>
<path d="M0 0 C3.4038609 1.24906896 6.14024435 2.6785214 9.0625 4.8125 C15.35302572 9.11876593 22.53582363 12.35114394 30 14 C30 16.64 30 19.28 30 22 C20.08060725 20.82337533 11.22667789 15.18836657 4.5234375 7.93359375 C2.52384672 5.39565161 1.19816466 2.99541164 0 0 Z " fill="#DE4434" transform="translate(410,201)"/>
<path d="M0 0 C8.58 0 17.16 0 26 0 C23.93808148 4.12383704 22.51417402 6.01228878 18.25 7.6875 C12.06348096 8.54673876 8.64136138 8.87163037 3.5 5.125 C1.46875 3.5078125 1.46875 3.5078125 0 2 C0 1.34 0 0.68 0 0 Z " fill="#DCDCDC" transform="translate(411,440)"/>
<path d="M0 0 C8.58 0 17.16 0 26 0 C23.93808148 4.12383704 22.51417402 6.01228878 18.25 7.6875 C12.06348096 8.54673876 8.64136138 8.87163037 3.5 5.125 C1.46875 3.5078125 1.46875 3.5078125 0 2 C0 1.34 0 0.68 0 0 Z " fill="#DCDCDC" transform="translate(163,440)"/>
</svg>
